/videos/6e369afe-7aa1-8822-7b93-4122daec1622/hls1/main/65.mp4

{"Protocol":0,"Id":"6e369afe7aa188227b934122daec1622","Path":"/data/media/tv/The Eminence in Shadow/Season 1/The Eminence In Shadow - S01E01 - The Hated Classmate.mkv","EncoderPath":null,"EncoderProtocol":null,"Type":0,"Container":"mkv,webm","Size":448260736,"Name":"The Eminence In Shadow - S01E01 - The Hated Classmate","IsRemote":false,"ETag":"8ee290167ac9c5205cb9685de38fe504","RunTimeTicks":14211009536,"ReadAtNativeFramerate":false,"IgnoreDts":false,"IgnoreIndex":false,"GenPtsInput":false,"SupportsTranscoding":true,"SupportsDirectStream":true,"SupportsDirectPlay":true,"IsInfiniteStream":false,"RequiresOpening":false,"OpenToken":null,"RequiresClosing":false,"LiveStreamId":null,"BufferMs":null,"RequiresLooping":false,"SupportsProbing":true,"VideoType":0,"IsoType":null,"Video3DFormat":null,"MediaStreams":[{"Codec":"hevc","CodecTag":null,"Language":null,"ColorRange":null,"ColorSpace":"bt709","ColorTransfer":"bt709","ColorPrimaries":"bt709","DvVersionMajor":null,"DvVersionMinor":null,"DvProfile":null,"DvLevel":null,"RpuPresentFlag":null,"ElPresentFlag":null,"BlPresentFlag":null,"DvBlSignalCompatibilityId":null,"Comment":null,"TimeBase":"1/1000","CodecTimeBase":null,"Title":"Tenrai-Sensei | 20 CRF VerySlow","VideoRange":"SDR","VideoRangeType":"SDR","VideoDoViTitle":null,"LocalizedUndefined":null,"LocalizedDefault":null,"LocalizedForced":null,"LocalizedExternal":null,"DisplayTitle":"Tenrai-Sensei | 20 CRF VerySlow - 1080p - HEVC - SDR","NalLengthSize":null,"IsInterlaced":false,"IsAVC":null,"ChannelLayout":null,"BitRate":2523456,"BitDepth":10,"RefFrames":1,"PacketLength":null,"Channels":null,"SampleRate":null,"IsDefault":true,"IsForced":false,"Height":1080,"Width":1920,"AverageFrameRate":23.976025,"RealFrameRate":23.976025,"Profile":"Main 10","Type":1,"AspectRatio":"16:9","Index":0,"Score":null,"IsExternal":false,"DeliveryMethod":null,"DeliveryUrl":null,"IsExternalUrl":null,"IsTextSubtitleStream":false,"SupportsExternalStream":false,"Path":null,"PixelFormat":"yuv420p10le","Level":150,"IsAnamorphic":null},{"Codec":"aac","CodecTag":null,"Language":"eng","ColorRange":null,"ColorSpace":null,"ColorTransfer":null,"ColorPrimaries":null,"DvVersionMajor":null,"DvVersionMinor":null,"DvProfile":null,"DvLevel":null,"RpuPresentFlag":null,"ElPresentFlag":null,"BlPresentFlag":null,"DvBlSignalCompatibilityId":null,"Comment":null,"TimeBase":"1/1000","CodecTimeBase":null,"Title":"","VideoRange":null,"VideoRangeType":null,"VideoDoViTitle":null,"LocalizedUndefined":null,"LocalizedDefault":null,"LocalizedForced":null,"LocalizedExternal":null,"DisplayTitle":"English - AAC - Stereo - Default","NalLengthSize":null,"IsInterlaced":false,"IsAVC":null,"ChannelLayout":"stereo","BitRate":159374,"BitDepth":null,"RefFrames":null,"PacketLength":null,"Channels":2,"SampleRate":48000,"IsDefault":true,"IsForced":false,"Height":null,"Width":null,"AverageFrameRate":null,"RealFrameRate":null,"Profile":"LC","Type":0,"AspectRatio":null,"Index":1,"Score":null,"IsExternal":false,"DeliveryMethod":null,"DeliveryUrl":null,"IsExternalUrl":null,"IsTextSubtitleStream":false,"SupportsExternalStream":false,"Path":null,"PixelFormat":null,"Level":0,"IsAnamorphic":null},{"Codec":"opus","CodecTag":null,"Language":"jpn","ColorRange":null,"ColorSpace":null,"ColorTransfer":null,"ColorPrimaries":null,"DvVersionMajor":null,"DvVersionMinor":null,"DvProfile":null,"DvLevel":null,"RpuPresentFlag":null,"ElPresentFlag":null,"BlPresentFlag":null,"DvBlSignalCompatibilityId":null,"Comment":null,"TimeBase":"1/1000","CodecTimeBase":null,"Title":"Stereo","VideoRange":null,"VideoRangeType":null,"VideoDoViTitle":null,"LocalizedUndefined":null,"LocalizedDefault":null,"LocalizedForced":null,"LocalizedExternal":null,"DisplayTitle":"Stereo - Japanese - OPUS","NalLengthSize":null,"IsInterlaced":false,"IsAVC":null,"ChannelLayout":"stereo","BitRate":189779,"BitDepth":null,"RefFrames":null,"PacketLength":null,"Channels":2,"SampleRate":48000,"IsDefault":false,"IsForced":false,"Height":null,"Width":null,"AverageFrameRate":null,"RealFrameRate":null,"Profile":null,"Type":0,"AspectRatio":null,"Index":2,"Score":null,"IsExternal":false,"DeliveryMethod":null,"DeliveryUrl":null,"IsExternalUrl":null,"IsTextSubtitleStream":false,"SupportsExternalStream":false,"Path":null,"PixelFormat":null,"Level":0,"IsAnamorphic":null},{"Codec":"ass","CodecTag":null,"Language":"eng","ColorRange":null,"ColorSpace":null,"ColorTransfer":null,"ColorPrimaries":null,"DvVersionMajor":null,"DvVersionMinor":null,"DvProfile":null,"DvLevel":null,"RpuPresentFlag":null,"ElPresentFlag":null,"BlPresentFlag":null,"DvBlSignalCompatibilityId":null,"Comment":null,"TimeBase":"1/1000","CodecTimeBase":null,"Title":"S\u0026S","VideoRange":null,"VideoRangeType":null,"VideoDoViTitle":null,"LocalizedUndefined":"Undefined","LocalizedDefault":"Default","LocalizedForced":"Forced","LocalizedExternal":"External","DisplayTitle":"S\u0026S - English - Forced - ASS","NalLengthSize":null,"IsInterlaced":false,"IsAVC":null,"ChannelLayout":null,"BitRate":null,"BitDepth":null,"RefFrames":null,"PacketLength":null,"Channels":null,"SampleRate":null,"IsDefault":false,"IsForced":true,"Height":null,"Width":null,"AverageFrameRate":null,"RealFrameRate":null,"Profile":null,"Type":2,"AspectRatio":null,"Index":3,"Score":null,"IsExternal":false,"DeliveryMethod":null,"DeliveryUrl":null,"IsExternalUrl":null,"IsTextSubtitleStream":true,"SupportsExternalStream":true,"Path":null,"PixelFormat":null,"Level":0,"IsAnamorphic":null},{"Codec":"ass","CodecTag":null,"Language":"eng","ColorRange":null,"ColorSpace":null,"ColorTransfer":null,"ColorPrimaries":null,"DvVersionMajor":null,"DvVersionMinor":null,"DvProfile":null,"DvLevel":null,"RpuPresentFlag":null,"ElPresentFlag":null,"BlPresentFlag":null,"DvBlSignalCompatibilityId":null,"Comment":null,"TimeBase":"1/1000","CodecTimeBase":null,"Title":"Dialog - ENG","VideoRange":null,"VideoRangeType":null,"VideoDoViTitle":null,"LocalizedUndefined":"Undefined","LocalizedDefault":"Default","LocalizedForced":"Forced","LocalizedExternal":"External","DisplayTitle":"Dialog - ENG - English - Default - ASS","NalLengthSize":null,"IsInterlaced":false,"IsAVC":null,"ChannelLayout":null,"BitRate":null,"BitDepth":null,"RefFrames":null,"PacketLength":null,"Channels":null,"SampleRate":null,"IsDefault":true,"IsForced":false,"Height":null,"Width":null,"AverageFrameRate":null,"RealFrameRate":null,"Profile":null,"Type":2,"AspectRatio":null,"Index":4,"Score":null,"IsExternal":false,"DeliveryMethod":null,"DeliveryUrl":null,"IsExternalUrl":null,"IsTextSubtitleStream":true,"SupportsExternalStream":true,"Path":null,"PixelFormat":null,"Level":0,"IsAnamorphic":null}],"MediaAttachments":[{"Codec":null,"CodecTag":"[0][0][0][0]","Comment":null,"Index":5,"FileName":"FOT-TsukuMinPr5N-M.otf","MimeType":"font/otf","DeliveryUrl":null},{"Codec":null,"CodecTag":"[0][0][0][0]","Comment":null,"Index":6,"FileName":"arial.ttf","MimeType":"font/ttf","DeliveryUrl":null},{"Codec":null,"CodecTag":"[0][0][0][0]","Comment":null,"Index":7,"FileName":"arialbd.ttf","MimeType":"font/ttf","DeliveryUrl":null},{"Codec":null,"CodecTag":"[0][0][0][0]","Comment":null,"Index":8,"FileName":"ARIALBITMAP50.otf","MimeType":"font/otf","DeliveryUrl":null},{"Codec":null,"CodecTag":"[0][0][0][0]","Comment":null,"Index":9,"FileName":"Asul-Regular.ttf","MimeType":"font/ttf","DeliveryUrl":null},{"Codec":null,"CodecTag":"[0][0][0][0]","Comment":null,"Index":10,"FileName":"Bogart-Medium-trial.ttf","MimeType":"font/ttf","DeliveryUrl":null},{"Codec":null,"CodecTag":"[0][0][0][0]","Comment":null,"Index":11,"FileName":"Cabin-Bold.otf","MimeType":"font/otf","DeliveryUrl":null},{"Codec":null,"CodecTag":"[0][0][0][0]","Comment":null,"Index":12,"FileName":"Cabin-BoldItalic.otf","MimeType":"font/otf","DeliveryUrl":null}],"Formats":[],"Bitrate":2872609,"Timestamp":null,"RequiredHttpHeaders":{},"TranscodingUrl":null,"TranscodingSubProtocol":null,"TranscodingContainer":null,"AnalyzeDurationMs":null,"DefaultAudioStreamIndex":null,"DefaultSubtitleStreamIndex":null}

/usr/lib/jellyfin-ffmpeg/ffmpeg -analyzeduration 200M -ss 00:03:15.000 -noaccurate_seek -f matroska,webm -autorotate 0 -i file:"/data/media/tv/The Eminence in Shadow/Season 1/The Eminence In Shadow - S01E01 - The Hated Classmate.mkv" -map_metadata -1 -map_chapters -1 -threads 0 -map 0:0 -map 0:1 -codec:v:0 libx264 -preset veryfast -crf 23 -maxrate 8411520 -bufsize 16823040 -x264opts:0 subme=0:me_range=4:rc_lookahead=10:me=dia:no_chroma_me:8x8dct=0:partitions=none -force_key_frames:0 "expr:gte(t,195+n_forced*3)" -sc_threshold:v:0 0 -vf "setparams=color_primaries=bt709:color_trc=bt709:colorspace=bt709,scale=trunc(min(max(iw\,ih*a)\,min(1920\,1080*a))/2)*2:trunc(min(max(iw/a\,ih)\,min(1920/a\,1080))/2)*2,format=yuv420p,subtitles=f='/data/media/tv/The Eminence in Shadow/Season 1/The Eminence In Shadow - S01E01 - The Hated Classmate.mkv':si=0:fontsdir='/config/cache/attachments/6e369afe7aa188227b934122daec1622'" -start_at_zero -codec:a:0 copy -copyts -avoid_negative_ts disabled -max_muxing_queue_size 2048 -f hls -max_delay 5000000 -hls_time 3 -hls_segment_type fmp4 -hls_fmp4_init_filename "e72ef822b229c77494b16eff8e93bec3-1.mp4" -start_number 65 -hls_segment_filename "/config/data/transcodes/e72ef822b229c77494b16eff8e93bec3%d.mp4" -hls_playlist_type vod -hls_list_size 0 -y "/config/data/transcodes/e72ef822b229c77494b16eff8e93bec3.m3u8"


ffmpeg version 5.1.3-Jellyfin Copyright (c) 2000-2022 the FFmpeg developers
  built with gcc 11 (Ubuntu 11.4.0-1ubuntu1~22.04)
  configuration: --prefix=/usr/lib/jellyfin-ffmpeg --target-os=linux --extra-libs=-lfftw3f --extra-version=Jellyfin --disable-doc --disable-ffplay --disable-ptx-compression --disable-static --disable-libxcb --disable-sdl2 --disable-xlib --enable-lto --enable-gpl --enable-version3 --enable-shared --enable-gmp --enable-gnutls --enable-chromaprint --enable-libdrm --enable-libass --enable-libfreetype --enable-libfribidi --enable-libfontconfig --enable-libbluray --enable-libmp3lame --enable-libopus --enable-libtheora --enable-libvorbis --enable-libopenmpt --enable-libdav1d --enable-libwebp --enable-libvpx --enable-libx264 --enable-libx265 --enable-libzvbi --enable-libzimg --enable-libfdk-aac --toolchain=hardened --enable-cross-compile --arch=arm64 --cross-prefix=/usr/bin/aarch64-linux-gnu-
  libavutil      57. 28.100 / 57. 28.100
  libavcodec     59. 37.100 / 59. 37.100
  libavformat    59. 27.100 / 59. 27.100
  libavdevice    59.  7.100 / 59.  7.100
  libavfilter     8. 44.100 /  8. 44.100
  libswscale      6.  7.100 /  6.  7.100
  libswresample   4.  7.100 /  4.  7.100
  libpostproc    56.  6.100 / 56.  6.100
[matroska,webm @ 0x55c8555600] Could not find codec parameters for stream 5 (Attachment: none): unknown codec
Consider increasing the value for the 'analyzeduration' (200000000) and 'probesize' (5000000) options
[matroska,webm @ 0x55c8555600] Could not find codec parameters for stream 6 (Attachment: none): unknown codec
Consider increasing the value for the 'analyzeduration' (200000000) and 'probesize' (5000000) options
[matroska,webm @ 0x55c8555600] Could not find codec parameters for stream 7 (Attachment: none): unknown codec
Consider increasing the value for the 'analyzeduration' (200000000) and 'probesize' (5000000) options
[matroska,webm @ 0x55c8555600] Could not find codec parameters for stream 8 (Attachment: none): unknown codec
Consider increasing the value for the 'analyzeduration' (200000000) and 'probesize' (5000000) options
[matroska,webm @ 0x55c8555600] Could not find codec parameters for stream 9 (Attachment: none): unknown codec
Consider increasing the value for the 'analyzeduration' (200000000) and 'probesize' (5000000) options
[matroska,webm @ 0x55c8555600] Could not find codec parameters for stream 10 (Attachment: none): unknown codec
Consider increasing the value for the 'analyzeduration' (200000000) and 'probesize' (5000000) options
[matroska,webm @ 0x55c8555600] Could not find codec parameters for stream 11 (Attachment: none): unknown codec
Consider increasing the value for the 'analyzeduration' (200000000) and 'probesize' (5000000) options
[matroska,webm @ 0x55c8555600] Could not find codec parameters for stream 12 (Attachment: none): unknown codec
Consider increasing the value for the 'analyzeduration' (200000000) and 'probesize' (5000000) options
Input #0, matroska,webm, from 'file:/data/media/tv/The Eminence in Shadow/Season 1/The Eminence In Shadow - S01E01 - The Hated Classmate.mkv':
  Metadata:
    title           : 
    creation_time   : 2023-05-09T01:00:39.000000Z
    ENCODER         : Lavf58.76.100
  Duration: 00:23:41.10, start: -0.007000, bitrate: 2523 kb/s
  Chapters:
    Chapter #0:0: start 0.000000, end 152.010000
      Metadata:
        title           : Part A
    Chapter #0:1: start 152.010000, end 1012.580000
      Metadata:
        title           : Part B
    Chapter #0:2: start 1012.580000, end 1074.100000
      Metadata:
        title           : ED
    Chapter #0:3: start 1074.100000, end 1329.930000
      Metadata:
        title           : Outro
    Chapter #0:4: start 1329.930000, end 1421.094000
      Metadata:
        title           : OP
  Stream #0:0: Video: hevc (Main 10), yuv420p10le(tv, bt709), 1920x1080 [SAR 1:1 DAR 16:9], 23.98 fps, 23.98 tbr, 1k tbn (default)
    Metadata:
      title           : Tenrai-Sensei | 20 CRF VerySlow
      BPS             : 2072944
      DURATION        : 00:23:41.087000000
      NUMBER_OF_FRAMES: 34072
      NUMBER_OF_BYTES : 368229301
      _STATISTICS_WRITING_APP: mkvmerge v73.0.0 ('25 or 6 to 4') 64-bit
      _STATISTICS_WRITING_DATE_UTC: 2023-05-09 01:00:39
      _STATISTICS_TAGS: BPS DURATION NUMBER_OF_FRAMES NUMBER_OF_BYTES
  Stream #0:1(eng): Audio: aac (LC), 48000 Hz, stereo, fltp (default)
    Metadata:
      title           : 
      BPS             : 159374
      DURATION        : 00:23:39.947000000
      NUMBER_OF_FRAMES: 66560
      NUMBER_OF_BYTES : 28288001
      _STATISTICS_WRITING_APP: mkvmerge v73.0.0 ('25 or 6 to 4') 64-bit
      _STATISTICS_WRITING_DATE_UTC: 2023-05-09 01:00:39
      _STATISTICS_TAGS: BPS DURATION NUMBER_OF_FRAMES NUMBER_OF_BYTES
  Stream #0:2(jpn): Audio: opus, 48000 Hz, stereo, fltp
    Metadata:
      title           : Stereo
      BPS             : 189779
      DURATION        : 00:23:41.101000000
      NUMBER_OF_FRAMES: 71055
      NUMBER_OF_BYTES : 33711964
      _STATISTICS_WRITING_APP: mkvmerge v73.0.0 ('25 or 6 to 4') 64-bit
      _STATISTICS_WRITING_DATE_UTC: 2023-05-09 01:00:39
      _STATISTICS_TAGS: BPS DURATION NUMBER_OF_FRAMES NUMBER_OF_BYTES
  Stream #0:3(eng): Subtitle: ass (forced)
    Metadata:
      title           : S&S
      BPS             : 11380
      DURATION        : 00:23:10.250000000
      NUMBER_OF_FRAMES: 8777
      NUMBER_OF_BYTES : 1977700
      _STATISTICS_WRITING_APP: mkvmerge v73.0.0 ('25 or 6 to 4') 64-bit
      _STATISTICS_WRITING_DATE_UTC: 2023-05-09 01:00:39
      _STATISTICS_TAGS: BPS DURATION NUMBER_OF_FRAMES NUMBER_OF_BYTES
  Stream #0:4(eng): Subtitle: ass (default)
    Metadata:
      title           : Dialog - ENG
      BPS             : 11448
      DURATION        : 00:23:12.750000000
      NUMBER_OF_FRAMES: 9040
      NUMBER_OF_BYTES : 1993064
      _STATISTICS_WRITING_APP: mkvmerge v73.0.0 ('25 or 6 to 4') 64-bit
      _STATISTICS_WRITING_DATE_UTC: 2023-05-09 01:00:39
      _STATISTICS_TAGS: BPS DURATION NUMBER_OF_FRAMES NUMBER_OF_BYTES
  Stream #0:5: Attachment: none
    Metadata:
      filename        : FOT-TsukuMinPr5N-M.otf
      mimetype        : font/otf
  Stream #0:6: Attachment: none
    Metadata:
      filename        : arial.ttf
      mimetype        : font/ttf
  Stream #0:7: Attachment: none
    Metadata:
      filename        : arialbd.ttf
      mimetype        : font/ttf
  Stream #0:8: Attachment: none
    Metadata:
      filename        : ARIALBITMAP50.otf
      mimetype        : font/otf
  Stream #0:9: Attachment: none
    Metadata:
      filename        : Asul-Regular.ttf
      mimetype        : font/ttf
  Stream #0:10: Attachment: none
    Metadata:
      filename        : Bogart-Medium-trial.ttf
      mimetype        : font/ttf
  Stream #0:11: Attachment: none
    Metadata:
      filename        : Cabin-Bold.otf
      mimetype        : font/otf
  Stream #0:12: Attachment: none
    Metadata:
      filename        : Cabin-BoldItalic.otf
      mimetype        : font/otf
Stream mapping:
  Stream #0:0 -> #0:0 (hevc (native) -> h264 (libx264))
  Stream #0:1 -> #0:1 (copy)
Press [q] to stop, [?] for help
[Parsed_subtitles_3 @ 0x55c93e8200] libass API version: 0x1502000
[Parsed_subtitles_3 @ 0x55c93e8200] libass source: tarball: 0.15.2
[Parsed_subtitles_3 @ 0x55c93e8200] Shaper: FriBidi 1.0.8 (SIMPLE) HarfBuzz-ng 2.7.4 (COMPLEX)
[matroska,webm @ 0x55c92df860] Could not find codec parameters for stream 5 (Attachment: none): unknown codec
Consider increasing the value for the 'analyzeduration' (0) and 'probesize' (5000000) options
[matroska,webm @ 0x55c92df860] Could not find codec parameters for stream 6 (Attachment: none): unknown codec
Consider increasing the value for the 'analyzeduration' (0) and 'probesize' (5000000) options
[matroska,webm @ 0x55c92df860] Could not find codec parameters for stream 7 (Attachment: none): unknown codec
Consider increasing the value for the 'analyzeduration' (0) and 'probesize' (5000000) options
[matroska,webm @ 0x55c92df860] Could not find codec parameters for stream 8 (Attachment: none): unknown codec
Consider increasing the value for the 'analyzeduration' (0) and 'probesize' (5000000) options
[matroska,webm @ 0x55c92df860] Could not find codec parameters for stream 9 (Attachment: none): unknown codec
Consider increasing the value for the 'analyzeduration' (0) and 'probesize' (5000000) options
[matroska,webm @ 0x55c92df860] Could not find codec parameters for stream 10 (Attachment: none): unknown codec
Consider increasing the value for the 'analyzeduration' (0) and 'probesize' (5000000) options
[matroska,webm @ 0x55c92df860] Could not find codec parameters for stream 11 (Attachment: none): unknown codec
Consider increasing the value for the 'analyzeduration' (0) and 'probesize' (5000000) options
[matroska,webm @ 0x55c92df860] Could not find codec parameters for stream 12 (Attachment: none): unknown codec
Consider increasing the value for the 'analyzeduration' (0) and 'probesize' (5000000) options
[Parsed_subtitles_3 @ 0x55c93e8200] Loading font file '/config/cache/attachments/6e369afe7aa188227b934122daec1622/Bogart-Medium-trial.ttf'
[Parsed_subtitles_3 @ 0x55c93e8200] Loading font file '/config/cache/attachments/6e369afe7aa188227b934122daec1622/FOT-TsukuMinPr5N-M.otf'
[Parsed_subtitles_3 @ 0x55c93e8200] Loading font file '/config/cache/attachments/6e369afe7aa188227b934122daec1622/arialbd.ttf'
[Parsed_subtitles_3 @ 0x55c93e8200] Loading font file '/config/cache/attachments/6e369afe7aa188227b934122daec1622/Asul-Regular.ttf'
[Parsed_subtitles_3 @ 0x55c93e8200] Loading font file '/config/cache/attachments/6e369afe7aa188227b934122daec1622/Cabin-BoldItalic.otf'
[Parsed_subtitles_3 @ 0x55c93e8200] Loading font file '/config/cache/attachments/6e369afe7aa188227b934122daec1622/Cabin-Bold.otf'
[Parsed_subtitles_3 @ 0x55c93e8200] Loading font file '/config/cache/attachments/6e369afe7aa188227b934122daec1622/arial.ttf'
[Parsed_subtitles_3 @ 0x55c93e8200] Loading font file '/config/cache/attachments/6e369afe7aa188227b934122daec1622/ARIALBITMAP50.otf'
[Parsed_subtitles_3 @ 0x55c93e8200] Using font provider fontconfig
[libx264 @ 0x55c92c1cd0] using SAR=1/1
[libx264 @ 0x55c92c1cd0] using cpu capabilities: ARMv8 NEON
[libx264 @ 0x55c92c1cd0] profile Main, level 4.0, 4:2:0, 8-bit
[libx264 @ 0x55c92c1cd0] 264 - core 163 r3060 5db6aa6 - H.264/MPEG-4 AVC codec - Copyleft 2003-2021 - http://www.videolan.org/x264.html - options: cabac=1 ref=1 deblock=1:0:0 analyse=0x1:0 me=dia subme=0 psy=1 psy_rd=1.00:0.00 mixed_ref=0 me_range=4 chroma_me=0 trellis=0 8x8dct=0 cqm=0 deadzone=21,11 fast_pskip=1 chroma_qp_offset=0 threads=6 lookahead_threads=1 sliced_threads=0 nr=0 decimate=1 interlaced=0 bluray_compat=0 constrained_intra=0 bframes=3 b_pyramid=2 b_adapt=1 b_bias=0 direct=1 weightb=1 open_gop=0 weightp=1 keyint=250 keyint_min=23 scenecut=0 intra_refresh=0 rc_lookahead=10 rc=crf mbtree=1 crf=23.0 qcomp=0.60 qpmin=0 qpmax=69 qpstep=4 vbv_maxrate=8411 vbv_bufsize=16823 crf_max=0.0 nal_hrd=none filler=0 ip_ratio=1.40 aq=1:1.00
[hls @ 0x55c92c1640] Opening '/config/data/transcodes/e72ef822b229c77494b16eff8e93bec3-1.mp4' for writing
Output #0, hls, to '/config/data/transcodes/e72ef822b229c77494b16eff8e93bec3.m3u8':
  Metadata:
    encoder         : Lavf59.27.100
  Stream #0:0: Video: h264, yuv420p(tv, bt709, progressive), 1920x1080 [SAR 1:1 DAR 16:9], q=2-31, 23.98 fps, 24k tbn (default)
    Metadata:
      encoder         : Lavc59.37.100 libx264
    Side data:
      cpb: bitrate max/min/avg: 8411000/0/0 buffer size: 16823000 vbv_delay: N/A
  Stream #0:1: Audio: aac (LC), 48000 Hz, stereo, fltp (default)
frame=    1 fps=0.0 q=0.0 size=N/A time=00:00:00.00 bitrate=N/A speed=   0x    
frame=    1 fps=1.0 q=0.0 size=N/A time=00:00:00.02 bitrate=N/A speed=0.0217x    
frame=   18 fps= 12 q=0.0 size=N/A time=00:00:00.85 bitrate=N/A speed=0.556x    
frame=   32 fps= 15 q=28.0 size=N/A time=00:00:01.53 bitrate=N/A speed=0.729x    
frame=   45 fps= 17 q=28.0 size=N/A time=00:00:01.90 bitrate=N/A speed=0.724x    
frame=   60 fps= 19 q=28.0 size=N/A time=00:00:02.56 bitrate=N/A speed=0.818x    
frame=   74 fps= 20 q=28.0 size=N/A time=00:00:03.47 bitrate=N/A speed=0.933x    
frame=   86 fps= 20 q=28.0 size=N/A time=00:00:03.81 bitrate=N/A speed=0.88x    
frame=   98 fps= 20 q=28.0 size=N/A time=00:00:04.16 bitrate=N/A speed=0.844x    
frame=  109 fps= 20 q=28.0 size=N/A time=00:00:04.67 bitrate=N/A speed=0.844x    
frame=  118 fps= 20 q=28.0 size=N/A time=00:00:05.01 bitrate=N/A speed=0.83x    
frame=  127 fps= 19 q=28.0 size=N/A time=00:00:05.37 bitrate=N/A speed=0.818x    
frame=  137 fps= 19 q=28.0 size=N/A time=00:00:05.86 bitrate=N/A speed=0.828x    
frame=  146 fps= 19 q=28.0 size=N/A time=00:00:06.06 bitrate=N/A speed=0.796x    
frame=  156 fps= 19 q=28.0 size=N/A time=00:00:06.72 bitrate=N/A speed=0.826x    
frame=  168 fps= 19 q=28.0 size=N/A time=00:00:07.27 bitrate=N/A speed=0.84x    
frame=  178 fps= 19 q=28.0 size=N/A time=00:00:07.61 bitrate=N/A speed=0.818x    
frame=  188 fps= 19 q=28.0 size=N/A time=00:00:07.95 bitrate=N/A speed=0.807x    
frame=  199 fps= 19 q=28.0 size=N/A time=00:00:08.32 bitrate=N/A speed=0.803x    
frame=  211 fps= 19 q=28.0 size=N/A time=00:00:08.81 bitrate=N/A speed=0.808x    
frame=  222 fps= 19 q=28.0 size=N/A time=00:00:09.66 bitrate=N/A speed=0.841x    
frame=  234 fps= 19 q=28.0 size=N/A time=00:00:09.83 bitrate=N/A speed=0.808x    
frame=  246 fps= 19 q=28.0 size=N/A time=00:00:10.34 bitrate=N/A speed=0.811x    
frame=  257 fps= 19 q=28.0 size=N/A time=00:00:10.85 bitrate=N/A speed=0.818x    
frame=  267 fps= 19 q=28.0 size=N/A time=00:00:11.20 bitrate=N/A speed=0.809x    
[hls @ 0x55c92c1640] Opening '/config/data/transcodes/e72ef822b229c77494b16eff8e93bec365.mp4' for writing
frame=  279 fps= 19 q=28.0 size=N/A time=00:00:11.86 bitrate=N/A speed=0.826x    
frame=  289 fps= 19 q=28.0 size=N/A time=00:00:12.03 bitrate=N/A speed=0.809x    
frame=  300 fps= 19 q=28.0 size=N/A time=00:00:12.48 bitrate=N/A speed=0.809x    
frame=  312 fps= 19 q=28.0 size=N/A time=00:00:13.33 bitrate=N/A speed=0.832x    
frame=  325 fps= 20 q=28.0 size=N/A time=00:00:13.50 bitrate=N/A speed=0.817x    
frame=  340 fps= 20 q=28.0 size=N/A time=00:00:14.18 bitrate=N/A speed=0.83x    
frame=  356 fps= 20 q=28.0 size=N/A time=00:00:15.03 bitrate=N/A speed=0.854x    
frame=  372 fps= 21 q=28.0 size=N/A time=00:00:15.55 bitrate=N/A speed=0.858x    
frame=  388 fps= 21 q=28.0 size=N/A time=00:00:16.23 bitrate=N/A speed=0.871x    
frame=  404 fps= 21 q=28.0 size=N/A time=00:00:16.91 bitrate=N/A speed=0.883x    
frame=  418 fps= 21 q=28.0 size=N/A time=00:00:17.40 bitrate=N/A speed=0.885x    
frame=  433 fps= 21 q=28.0 size=N/A time=00:00:18.26 bitrate=N/A speed=0.906x    
frame=  450 fps= 22 q=28.0 size=N/A time=00:00:18.94 bitrate=N/A speed=0.916x    
frame=  466 fps= 22 q=28.0 size=N/A time=00:00:19.62 bitrate=N/A speed=0.923x    
frame=  476 fps= 22 q=28.0 size=N/A time=00:00:19.99 bitrate=N/A speed=0.918x    
frame=  489 fps= 22 q=28.0 size=N/A time=00:00:20.48 bitrate=N/A speed=0.918x    
frame=  502 fps= 22 q=28.0 size=N/A time=00:00:21.16 bitrate=N/A speed=0.926x    
frame=  514 fps= 22 q=28.0 size=N/A time=00:00:21.50 bitrate=N/A speed=0.92x    
[hls @ 0x55c92c1640] Opening '/config/data/transcodes/e72ef822b229c77494b16eff8e93bec366.mp4' for writing
frame=  523 fps= 22 q=28.0 size=N/A time=00:00:22.01 bitrate=N/A speed=0.922x    
frame=  538 fps= 22 q=28.0 size=N/A time=00:00:22.65 bitrate=N/A speed=0.928x    
frame=  550 fps= 22 q=28.0 size=N/A time=00:00:22.99 bitrate=N/A speed=0.922x    
frame=  561 fps= 22 q=28.0 size=N/A time=00:00:23.68 bitrate=N/A speed=0.927x    
frame=  573 fps= 22 q=28.0 size=N/A time=00:00:24.02 bitrate=N/A speed=0.921x    
frame=  582 fps= 22 q=28.0 size=N/A time=00:00:24.53 bitrate=N/A speed=0.923x    
frame=  591 fps= 22 q=28.0 size=N/A time=00:00:24.70 bitrate=N/A speed=0.911x    
frame=  602 fps= 22 q=28.0 size=N/A time=00:00:25.23 bitrate=N/A speed=0.914x    
frame=  612 fps= 22 q=28.0 size=N/A time=00:00:25.72 bitrate=N/A speed=0.915x    
frame=  623 fps= 22 q=28.0 size=N/A time=00:00:26.24 bitrate=N/A speed=0.916x    
frame=  632 fps= 22 q=28.0 size=N/A time=00:00:26.34 bitrate=N/A speed=0.902x    
frame=  645 fps= 22 q=28.0 size=N/A time=00:00:27.00 bitrate=N/A speed=0.907x    
frame=  655 fps= 22 q=28.0 size=N/A time=00:00:27.34 bitrate=N/A speed=0.901x    
frame=  665 fps= 22 q=28.0 size=N/A time=00:00:27.86 bitrate=N/A speed=0.902x    
frame=  676 fps= 21 q=28.0 size=N/A time=00:00:28.22 bitrate=N/A speed=0.897x    
frame=  690 fps= 22 q=28.0 size=N/A time=00:00:28.77 bitrate=N/A speed= 0.9x    
frame=  700 fps= 22 q=28.0 size=N/A time=00:00:29.46 bitrate=N/A speed=0.905x    
frame=  712 fps= 22 q=28.0 size=N/A time=00:00:29.80 bitrate=N/A speed= 0.9x    
frame=  723 fps= 22 q=28.0 size=N/A time=00:00:30.48 bitrate=N/A speed=0.907x    
frame=  734 fps= 21 q=28.0 size=N/A time=00:00:30.82 bitrate=N/A speed=0.901x    
frame=  745 fps= 21 q=28.0 size=N/A time=00:00:31.19 bitrate=N/A speed=0.897x    
frame=  758 fps= 21 q=28.0 size=N/A time=00:00:31.85 bitrate=N/A speed=0.902x    
frame=  770 fps= 21 q=28.0 size=N/A time=00:00:32.19 bitrate=N/A speed=0.898x    
[hls @ 0x55c92c1640] Opening '/config/data/transcodes/e72ef822b229c77494b16eff8e93bec367.mp4' for writing
frame=  781 fps= 21 q=28.0 size=N/A time=00:00:32.70 bitrate=N/A speed=0.899x    
frame=  791 fps= 21 q=28.0 size=N/A time=00:00:33.04 bitrate=N/A speed=0.895x    
frame=  803 fps= 21 q=28.0 size=N/A time=00:00:33.70 bitrate=N/A speed= 0.9x    
frame=  814 fps= 21 q=28.0 size=N/A time=00:00:34.21 bitrate=N/A speed=0.902x    
frame=  825 fps= 21 q=28.0 size=N/A time=00:00:34.56 bitrate=N/A speed=0.899x    
frame=  838 fps= 21 q=28.0 size=N/A time=00:00:35.24 bitrate=N/A speed=0.903x    
frame=  850 fps= 22 q=28.0 size=N/A time=00:00:35.62 bitrate=N/A speed=0.901x    
frame=  859 fps= 21 q=28.0 size=N/A time=00:00:35.81 bitrate=N/A speed=0.894x    
frame=  873 fps= 22 q=28.0 size=N/A time=00:00:36.47 bitrate=N/A speed=0.899x    
frame=  886 fps= 22 q=28.0 size=N/A time=00:00:36.99 bitrate=N/A speed= 0.9x    
frame=  897 fps= 22 q=28.0 size=N/A time=00:00:37.50 bitrate=N/A speed=0.902x    
frame=  910 fps= 22 q=28.0 size=N/A time=00:00:38.01 bitrate=N/A speed=0.902x    
frame=  922 fps= 22 q=28.0 size=N/A time=00:00:38.69 bitrate=N/A speed=0.907x    
frame=  935 fps= 22 q=28.0 size=N/A time=00:00:39.03 bitrate=N/A speed=0.904x    
frame=  945 fps= 22 q=28.0 size=N/A time=00:00:39.72 bitrate=N/A speed=0.909x    
frame=  958 fps= 22 q=28.0 size=N/A time=00:00:40.06 bitrate=N/A speed=0.906x    
frame=  972 fps= 22 q=28.0 size=N/A time=00:00:40.72 bitrate=N/A speed=0.91x    
frame=  985 fps= 22 q=28.0 size=N/A time=00:00:41.06 bitrate=N/A speed=0.907x    
frame=  996 fps= 22 q=28.0 size=N/A time=00:00:41.60 bitrate=N/A speed=0.908x    
frame= 1009 fps= 22 q=28.0 size=N/A time=00:00:42.26 bitrate=N/A speed=0.911x    
frame= 1019 fps= 22 q=28.0 size=N/A time=00:00:42.60 bitrate=N/A speed=0.908x    
[hls @ 0x55c92c1640] Opening '/config/data/transcodes/e72ef822b229c77494b16eff8e93bec368.mp4' for writing
frame= 1032 fps= 22 q=28.0 size=N/A time=00:00:43.11 bitrate=N/A speed=0.909x    
frame= 1044 fps= 22 q=28.0 size=N/A time=00:00:43.52 bitrate=N/A speed=0.908x    
frame= 1051 fps= 22 q=28.0 size=N/A time=00:00:44.01 bitrate=N/A speed=0.909x    
frame= 1057 fps= 22 q=28.0 size=N/A time=00:00:44.35 bitrate=N/A speed=0.905x    
frame= 1065 fps= 21 q=28.0 size=N/A time=00:00:44.54 bitrate=N/A speed=0.899x    
frame= 1072 fps= 21 q=28.0 size=N/A time=00:00:44.86 bitrate=N/A speed=0.896x    
frame= 1079 fps= 21 q=28.0 size=N/A time=00:00:45.03 bitrate=N/A speed=0.89x    
frame= 1085 fps= 21 q=28.0 size=N/A time=00:00:45.37 bitrate=N/A speed=0.887x    
frame= 1091 fps= 21 q=28.0 size=N/A time=00:00:45.71 bitrate=N/A speed=0.882x    
frame= 1099 fps= 21 q=28.0 size=N/A time=00:00:46.05 bitrate=N/A speed=0.88x    
frame= 1103 fps= 21 q=28.0 size=N/A time=00:00:46.08 bitrate=N/A speed=0.871x    
frame= 1110 fps= 21 q=28.0 size=N/A time=00:00:46.40 bitrate=N/A speed=0.869x    
frame= 1115 fps= 21 q=28.0 size=N/A time=00:00:46.74 bitrate=N/A speed=0.866x    
frame= 1123 fps= 21 q=28.0 size=N/A time=00:00:46.91 bitrate=N/A speed=0.861x    
frame= 1130 fps= 21 q=28.0 size=N/A time=00:00:47.25 bitrate=N/A speed=0.858x    
frame= 1139 fps= 20 q=28.0 size=N/A time=00:00:47.59 bitrate=N/A speed=0.855x    
frame= 1148 fps= 20 q=28.0 size=N/A time=00:00:48.10 bitrate=N/A speed=0.855x    
frame= 1156 fps= 20 q=28.0 size=N/A time=00:00:48.17 bitrate=N/A speed=0.848x    
frame= 1165 fps= 20 q=28.0 size=N/A time=00:00:48.68 bitrate=N/A speed=0.848x    
frame= 1173 fps= 20 q=28.0 size=N/A time=00:00:49.02 bitrate=N/A speed=0.846x    
frame= 1182 fps= 20 q=28.0 size=N/A time=00:00:49.53 bitrate=N/A speed=0.845x    
frame= 1191 fps= 20 q=28.0 size=N/A time=00:00:49.87 bitrate=N/A speed=0.844x    
frame= 1201 fps= 20 q=28.0 size=N/A time=00:00:50.21 bitrate=N/A speed=0.841x    
frame= 1211 fps= 20 q=28.0 size=N/A time=00:00:50.58 bitrate=N/A speed=0.84x    
frame= 1223 fps= 20 q=28.0 size=N/A time=00:00:51.24 bitrate=N/A speed=0.844x    
frame= 1233 fps= 20 q=28.0 size=N/A time=00:00:51.58 bitrate=N/A speed=0.841x    
frame= 1244 fps= 20 q=28.0 size=N/A time=00:00:51.94 bitrate=N/A speed=0.839x    
frame= 1257 fps= 20 q=28.0 size=N/A time=00:00:52.60 bitrate=N/A speed=0.842x    
frame= 1267 fps= 20 q=28.0 size=N/A time=00:00:53.09 bitrate=N/A speed=0.842x    
[hls @ 0x55c92c1640] Opening '/config/data/transcodes/e72ef822b229c77494b16eff8e93bec369.mp4' for writing
frame= 1277 fps= 20 q=28.0 size=N/A time=00:00:53.44 bitrate=N/A speed=0.841x    
frame= 1288 fps= 20 q=28.0 size=N/A time=00:00:53.78 bitrate=N/A speed=0.839x    
frame= 1298 fps= 20 q=28.0 size=N/A time=00:00:54.12 bitrate=N/A speed=0.838x    
frame= 1311 fps= 20 q=28.0 size=N/A time=00:00:54.78 bitrate=N/A speed=0.84x    
frame= 1322 fps= 20 q=28.0 size=N/A time=00:00:55.29 bitrate=N/A speed=0.841x    
frame= 1331 fps= 20 q=28.0 size=N/A time=00:00:55.48 bitrate=N/A speed=0.838x    
frame= 1342 fps= 20 q=28.0 size=N/A time=00:00:56.14 bitrate=N/A speed=0.841x    
frame= 1353 fps= 20 q=28.0 size=N/A time=00:00:56.49 bitrate=N/A speed=0.839x    
frame= 1366 fps= 20 q=28.0 size=N/A time=00:00:57.17 bitrate=N/A speed=0.841x    
frame= 1377 fps= 20 q=28.0 size=N/A time=00:00:57.51 bitrate=N/A speed=0.839x    
frame= 1387 fps= 20 q=28.0 size=N/A time=00:00:57.87 bitrate=N/A speed=0.838x    
frame= 1400 fps= 20 q=28.0 size=N/A time=00:00:58.53 bitrate=N/A speed=0.842x    
frame= 1410 fps= 20 q=28.0 size=N/A time=00:00:58.85 bitrate=N/A speed=0.84x    
frame= 1421 fps= 20 q=28.0 size=N/A time=00:00:59.54 bitrate=N/A speed=0.844x    
frame= 1432 fps= 20 q=28.0 size=N/A time=00:00:59.88 bitrate=N/A speed=0.842x    
frame= 1444 fps= 20 q=28.0 size=N/A time=00:01:00.22 bitrate=N/A speed=0.841x    
frame= 1456 fps= 20 q=28.0 size=N/A time=00:01:00.73 bitrate=N/A speed=0.841x    
frame= 1468 fps= 20 q=28.0 size=N/A time=00:01:01.41 bitrate=N/A speed=0.844x    
frame= 1478 fps= 20 q=28.0 size=N/A time=00:01:01.75 bitrate=N/A speed=0.843x    
frame= 1489 fps= 20 q=28.0 size=N/A time=00:01:02.05 bitrate=N/A speed=0.841x    
frame= 1502 fps= 20 q=28.0 size=N/A time=00:01:02.91 bitrate=N/A speed=0.847x    
frame= 1511 fps= 20 q=28.0 size=N/A time=00:01:03.25 bitrate=N/A speed=0.846x    
[hls @ 0x55c92c1640] Opening '/config/data/transcodes/e72ef822b229c77494b16eff8e93bec370.mp4' for writing
frame= 1527 fps= 20 q=28.0 size=N/A time=00:01:03.76 bitrate=N/A speed=0.847x    
frame= 1540 fps= 20 q=28.0 size=N/A time=00:01:04.44 bitrate=N/A speed=0.85x    
frame= 1556 fps= 20 q=28.0 size=N/A time=00:01:04.87 bitrate=N/A speed=0.849x    
frame= 1568 fps= 20 q=28.0 size=N/A time=00:01:05.53 bitrate=N/A speed=0.852x    
frame= 1582 fps= 20 q=28.0 size=N/A time=00:01:06.07 bitrate=N/A speed=0.853x    
frame= 1596 fps= 20 q=28.0 size=N/A time=00:01:06.56 bitrate=N/A speed=0.854x    
frame= 1609 fps= 20 q=28.0 size=N/A time=00:01:07.24 bitrate=N/A speed=0.857x    
frame= 1625 fps= 21 q=28.0 size=N/A time=00:01:07.92 bitrate=N/A speed=0.859x    
frame= 1638 fps= 21 q=28.0 size=N/A time=00:01:08.43 bitrate=N/A speed=0.86x    
frame= 1653 fps= 21 q=28.0 size=N/A time=00:01:08.99 bitrate=N/A speed=0.861x    
frame= 1664 fps= 21 q=28.0 size=N/A time=00:01:09.50 bitrate=N/A speed=0.861x    
frame= 1679 fps= 21 q=28.0 size=N/A time=00:01:10.18 bitrate=N/A speed=0.864x    
frame= 1693 fps= 21 q=28.0 size=N/A time=00:01:10.87 bitrate=N/A speed=0.867x    
frame= 1708 fps= 21 q=28.0 size=N/A time=00:01:11.21 bitrate=N/A speed=0.865x    
frame= 1724 fps= 21 q=28.0 size=N/A time=00:01:11.95 bitrate=N/A speed=0.869x    
frame= 1736 fps= 21 q=28.0 size=N/A time=00:01:12.49 bitrate=N/A speed=0.87x    
frame= 1748 fps= 21 q=28.0 size=N/A time=00:01:12.98 bitrate=N/A speed=0.87x    
frame= 1759 fps= 21 q=28.0 size=N/A time=00:01:13.34 bitrate=N/A speed=0.869x    
frame= 1769 fps= 21 q=28.0 size=N/A time=00:01:13.83 bitrate=N/A speed=0.87x    
[hls @ 0x55c92c1640] Opening '/config/data/transcodes/e72ef822b229c77494b16eff8e93bec371.mp4' for writing
frame= 1778 fps= 21 q=28.0 size=N/A time=00:01:14.17 bitrate=N/A speed=0.867x    
frame= 1788 fps= 21 q=28.0 size=N/A time=00:01:14.92 bitrate=N/A speed=0.871x    
frame= 1798 fps= 21 q=28.0 size=N/A time=00:01:15.26 bitrate=N/A speed=0.869x    
frame= 1801 fps= 21 q=28.0 size=N/A time=00:01:15.26 bitrate=N/A speed=0.864x    
frame= 1808 fps= 21 q=28.0 size=N/A time=00:01:15.60 bitrate=N/A speed=0.862x    
frame= 1815 fps= 21 q=28.0 size=N/A time=00:01:15.94 bitrate=N/A speed=0.861x    
frame= 1826 fps= 21 q=28.0 size=N/A time=00:01:16.28 bitrate=N/A speed=0.859x    
frame= 1834 fps= 21 q=28.0 size=N/A time=00:01:16.48 bitrate=N/A speed=0.855x    
frame= 1841 fps= 20 q=28.0 size=N/A time=00:01:16.84 bitrate=N/A speed=0.854x    
frame= 1848 fps= 20 q=28.0 size=N/A time=00:01:17.18 bitrate=N/A speed=0.853x    
frame= 1855 fps= 20 q=28.0 size=N/A time=00:01:17.37 bitrate=N/A speed=0.849x    
frame= 1862 fps= 20 q=28.0 size=N/A time=00:01:17.69 bitrate=N/A speed=0.847x    
frame= 1871 fps= 20 q=28.0 size=N/A time=00:01:18.20 bitrate=N/A speed=0.847x    
frame= 1881 fps= 20 q=28.0 size=N/A time=00:01:18.54 bitrate=N/A speed=0.845x    
frame= 1889 fps= 20 q=28.0 size=N/A time=00:01:18.88 bitrate=N/A speed=0.844x    
frame= 1895 fps= 20 q=28.0 size=N/A time=00:01:19.06 bitrate=N/A speed=0.841x    
frame= 1904 fps= 20 q=28.0 size=N/A time=00:01:19.40 bitrate=N/A speed=0.84x    
frame= 1914 fps= 20 q=28.0 size=N/A time=00:01:20.08 bitrate=N/A speed=0.842x    
frame= 1921 fps= 20 q=28.0 size=N/A time=00:01:20.42 bitrate=N/A speed=0.841x    
frame= 1932 fps= 20 q=28.0 size=N/A time=00:01:20.76 bitrate=N/A speed=0.839x    
frame= 1941 fps= 20 q=28.0 size=N/A time=00:01:21.10 bitrate=N/A speed=0.838x    
frame= 1948 fps= 20 q=28.0 size=N/A time=00:01:21.42 bitrate=N/A speed=0.836x    
frame= 1956 fps= 20 q=28.0 size=N/A time=00:01:21.77 bitrate=N/A speed=0.835x    
frame= 1963 fps= 20 q=28.0 size=N/A time=00:01:22.28 bitrate=N/A speed=0.836x    
frame= 1970 fps= 20 q=28.0 size=N/A time=00:01:22.30 bitrate=N/A speed=0.832x    
frame= 1978 fps= 20 q=28.0 size=N/A time=00:01:22.45 bitrate=N/A speed=0.828x    